<svg width="409" height="495" viewBox="0 0 409 495" fill="none" xmlns="http://www.w3.org/2000/svg">
<path d="M186.901 258.419C207.331 210.241 230.351 163.741 252.983 116.618C265.844 88.3557 280.265 61.1107 296.418 34.7337C296.433 34.7097 296.448 34.6847 296.464 34.6587C305.34 20.0327 295.403 1.22274 278.322 0.238743C182.37 -5.29126 70.1621 85.9727 22.4181 198.556C-25.4499 311.43 7.20609 408.656 83.7131 460.942C96.2941 469.54 113.615 463.403 118.124 448.847C124.252 429.067 130.702 408.929 136.552 391.169C153.011 346.612 168.333 302.204 186.901 258.419Z" fill="#905742"/>
<path d="M380.214 352.53C428.02 239.801 415.532 95.47 344.614 30.459C332.149 19.032 312.014 24.735 307.409 41.006C307.055 42.259 306.796 43.178 306.666 43.679C298.932 73.627 289.372 102.932 277.994 131.825C259.851 180.852 242.425 229.724 221.993 277.901C203.424 321.685 182.151 363.57 161.563 406.374C153.169 422.341 143.573 440.248 133.963 457.793C126.645 471.154 134.303 487.864 149.228 490.912C239.92 509.435 332.389 465.303 380.214 352.53Z" fill="#603A2C"/>
</svg>
